<?xml version="1.0" encoding="utf-8"?>
<svg viewBox="5.322 65.05 488.173 363.986" xmlns="http://www.w3.org/2000/svg">
  <path style="fill: rgb(200, 150, 123);" d="M 39.527 264.704 L 39.04 263.824 L 28.786 262.936 L 18.532 262.048 L 15.157 260.446 L 11.782 258.843 L 11.782 256.407 L 11.782 253.972 L 15 252.377 L 18.219 250.783 L 28.94 248.956 L 39.663 247.13 L 48.164 247.798 L 56.769 248.576 L 78.579 262.079 L 82.765 271.688 L 86.953 281.297 L 89.878 286.432 L 92.804 291.567 L 95.142 303.297 L 98.411 320.398 L 99.341 325.768 L 98.942 330.678 L 98.544 335.587 L 95.734 337.025 L 92.925 338.464 L 89.772 336.097 L 86.62 333.729 L 86.201 332.714 L 82.811 320.374 L 79.841 309.051 L 74.323 296.796 L 68.806 284.541 L 63.389 278.611 L 58.21 272.461 Z" id="path5051"/>
  <path style="fill: rgb(0, 161, 231);" d="M 258.15 417.351 L 255.078 415.796 L 252.014 414.162 L 249.834 404.516 L 247.784 394.978 L 246.773 392.837 L 245.431 390.706 L 243.926 392.413 L 236.295 401.345 L 229.838 408.579 L 227.661 409.718 L 225.208 410.856 L 224.271 407.64 L 223.611 404.423 L 225.094 401.468 L 232.152 389.876 L 239.233 378.238 L 240.737 375.239 L 239.525 354.255 L 238.313 333.269 L 236.675 329.223 L 235.039 325.175 L 229.211 324.666 L 223.383 324.159 L 219.195 323.114 L 215.008 322.071 L 214.626 342.301 L 213.658 380.023 L 213.075 397.516 L 212.494 402.259 L 211.912 407.003 L 210.651 409.819 L 209.387 412.636 L 206.913 412.636 L 204.437 412.636 L 203.191 407.447 L 200.818 394.343 L 199.385 386.121 L 199.081 385.814 L 187.13 393.926 L 175.181 402.039 L 173.579 401.301 L 171.975 400.564 L 172.367 398.744 L 173.204 395.728 L 177.679 389.657 L 181.708 384.778 L 191.099 377.877 L 200.609 370.883 L 201.653 345.954 L 202.579 321.117 L 202.122 320.662 L 196.969 318.452 L 184.643 313.363 L 177.013 310.028 L 171.557 304.557 L 166.103 299.085 L 160.476 290.315 L 154.849 281.546 L 151.945 273.712 L 148.61 265.429 L 148.179 264.977 L 132.185 265.898 L 116.192 266.818 L 106.482 264.664 L 96.77 262.511 L 90.558 260.184 L 84.346 257.855 L 82.208 259.59 L 80.071 261.326 L 68.377 267.235 L 56.684 273.143 L 46.707 276.768 L 36.728 280.392 L 32.385 281.003 L 27.866 281.437 L 34.263 273.456 L 49.054 256.864 L 57.272 248.075 L 65.889 241.56 L 74.507 235.047 L 74.926 231.789 L 75.345 228.532 L 77.835 223.191 L 80.324 217.851 L 89.635 208.533 L 98.946 199.215 L 109.092 195.359 L 119.238 191.504 L 126.916 189.365 L 134.592 187.227 L 152.215 184.026 L 169.964 180.66 L 171.753 177.531 L 183.628 161.225 L 193.841 147.884 L 208.905 131.092 L 223.969 114.302 L 236.295 105.247 L 255.078 91.827 L 261.535 87.464 L 271.178 83.134 L 280.822 78.805 L 282.732 78.805 L 286.047 79.343 L 287.449 79.882 L 288.408 81.361 L 289.367 82.839 L 287.018 89.933 L 284.669 97.028 L 278.773 105.556 L 272.877 114.085 L 266.5 120.607 L 260.124 127.131 L 260.723 128.188 L 261.322 129.247 L 264.131 127.163 L 266.939 125.081 L 278.031 121.174 L 289.122 117.268 L 299.863 114.639 L 310.606 112.01 L 314.276 112.01 L 317.947 112.01 L 319.868 114.013 L 321.79 116.017 L 320.2 119.202 L 318.611 122.387 L 312.693 130.095 L 302.351 142.464 L 297.926 147.124 L 303.21 146.774 L 314.949 146.068 L 321.405 145.712 L 334.612 146.353 L 351.212 147.351 L 354.606 147.707 L 355.749 149.97 L 356.891 152.234 L 354.35 155.691 L 351.808 159.149 L 343.409 167.147 L 335.01 175.145 L 336.719 175.574 L 365.216 178.701 L 392.005 181.399 L 437.951 191.769 L 484.078 202.322 L 472.901 229.745 L 455.386 270.624 L 444.132 294.543 L 439.033 304.823 L 438.328 304.56 L 418.254 298.307 L 384.503 287.924 L 369.993 283.633 L 373.397 312.162 L 376.932 340.592 L 376.559 343.372 L 376.186 346.15 L 373.155 348.259 L 370.123 350.368 L 365.844 349.145 L 361.565 347.921 L 354.399 344.481 L 347.231 341.04 L 338.721 333.59 L 326.053 322.28 L 321.896 318.418 L 323.555 327.133 L 325.214 335.849 L 325.213 341.482 L 325.212 347.115 L 324.057 353.933 L 322.901 360.752 L 321.931 362.944 L 320.961 365.135 L 319.139 365.778 L 317.316 366.42 L 311.142 362.173 L 304.97 357.927 L 296.83 349.852 L 288.691 341.778 L 286.607 337.33 L 284.523 332.884 L 281.175 346.355 L 277.826 359.827 L 276.512 363.101 L 275.196 366.375 L 272.932 366.991 L 270.669 367.606 L 267.276 365.87 L 263.883 364.135 L 259.187 360.459 L 254.492 356.783 L 254.117 362.325 L 253.676 372.396 L 253.611 376.924 L 256.501 383.829 L 259.391 390.733 L 260.316 398.399 L 261.242 408.776 L 261.242 411.489 L 259.764 414.434 Z" id="path5047"/>
  <path style="fill: rgb(255, 255, 255);" d="M 132.697 246.549 L 135.338 246.595 L 138.272 245.806 L 142.968 244.094 L 147.389 240.802 L 150.05 238.434 L 151.791 234.961 L 153.531 231.49 L 153.522 226.746 L 153.512 222.002 L 152.092 219.063 L 150.67 216.125 L 148.629 213.842 L 146.588 211.559 L 144.052 210.059 L 141.517 208.558 L 138.428 207.727 L 135.338 206.895 L 132.99 206.895 L 130.642 206.895 L 127.707 207.686 L 123.011 209.398 L 118.59 212.689 L 115.929 215.057 L 114.187 218.529 L 112.446 222.002 L 112.454 226.756 L 112.461 231.508 L 114.195 234.972 L 115.929 238.434 L 118.59 240.802 L 123.011 244.096 L 127.414 245.763 L 130.055 246.503 Z" id="path5021"/>
  <path style="fill: rgb(200, 150, 123);" d="M 132.907 232.379 L 131.727 232.379 L 130.451 231.007 L 129.175 229.634 L 129.175 228.441 L 129.175 227.248 L 130.533 225.959 L 131.891 224.67 L 133.072 224.67 L 134.253 224.67 L 135.529 226.042 L 136.805 227.415 L 136.805 228.608 L 136.805 229.8 L 135.446 231.09 L 134.088 232.379 Z" id="path5023"/>
  <path id="path5025" d="M 33.206 277.812 L 32.032 278.155 L 34.087 276.058 L 54.043 257.916 L 71.946 241.87 L 72.874 241.868 L 73.802 241.866 L 77.615 246.165 L 83.295 252.622 L 85.16 254.78 L 77.38 259.273 L 69.598 263.767 L 58.871 268.497 L 48.146 273.227 L 41.263 275.348 Z" style="fill: rgb(254, 241, 0);"/>
</svg>